<svg xmlns="http://www.w3.org/2000/svg" xmlns:xlink="http://www.w3.org/1999/xlink" width="840" height="754.7199999999999"><rect width="840" height="754.7199999999999" rx="5" ry="5" class="a"></rect><svg y="0%" x="0%"><circle cx="20" cy="20" r="6" class="b"></circle><circle cx="40" cy="20" r="6" class="c"></circle><circle cx="60" cy="20" r="6" class="d"></circle></svg><svg height="694.7199999999999" viewBox="0 0 80 69.472" width="800" x="15" xmlns="http://www.w3.org/2000/svg" xmlns:xlink="http://www.w3.org/1999/xlink" y="50"><style>.a{fill:rgb(40,45,53)}.b{fill:#ff5f58}.c{fill:#ffbd2e}.d{fill:#18c132}.e{font-family:Monaco,Consolas,Menlo,'Bitstream Vera Sans Mono','Powerline Symbols',monospace}.f{fill:rgb(185,192,203);white-space:pre}.g{fill:transparent}.h{fill:rgb(111,118,131)}.j{animation-duration:11.761227s;animation-iteration-count:infinite;animation-name:i;animation-timing-function:steps(1,end)}@keyframes i{0%{transform:translateX(-0px)}0%{transform:translateX(-80px)}0%{transform:translateX(-160px)}0%{transform:translateX(-240px)}4.6%{transform:translateX(-320px)}9.1%{transform:translateX(-400px)}13.6%{transform:translateX(-480px)}18.2%{transform:translateX(-560px)}22.7%{transform:translateX(-640px)}22.8%{transform:translateX(-720px)}22.8%{transform:translateX(-800px)}23%{transform:translateX(-880px)}23%{transform:translateX(-960px)}23.2%{transform:translateX(-1040px)}52.9%{transform:translateX(-1120px)}53.1%{transform:translateX(-1200px)}60%{transform:translateX(-1280px)}60.1%{transform:translateX(-1360px)}60.1%{transform:translateX(-1440px)}60.3%{transform:translateX(-1520px)}90%{transform:translateX(-1600px)}90.2%{transform:translateX(-1680px)}97%{transform:translateX(-1760px)}97.1%{transform:translateX(-1840px)}97.2%{transform:translateX(-1920px)}97.2%{transform:translateX(-2000px)}97.4%{transform:translateX(-2080px)}97.4%{transform:translateX(-2160px)}97.4%{transform:translateX(-2240px)}100%{transform:translateX(-2320px)}}</style><g font-family="Monaco, Consolas, Menlo, &#x27;Bitstream Vera Sans Mono&#x27;, &#x27;Powerline Symbols&#x27;, monospace" font-size="1.67" class="e"><defs><symbol id="1"><text x="0" y="1.67" class="f">╔══════════════════════════════════════════════════╗</text></symbol><symbol id="2"><text x="0" y="1.67" class="f">║</text><text x="6.012" y="1.67" class="f">ACP</text><text x="10.02" y="1.67" class="f">—</text><text x="12.024" y="1.67" class="f">Agent</text><text x="18.035999999999998" y="1.67" class="f">Communication</text><text x="32.064" y="1.67" class="f">Protocol</text><text x="50.1" y="1.67" class="f">║</text></symbol><symbol id="3"><text x="0" y="1.67" class="f">║</text><text x="6.012" y="1.67" class="f">2-Agent</text><text x="14.027999999999999" y="1.67" class="f">Bidirectional</text><text x="28.055999999999997" y="1.67" class="f">Demo</text><text x="33.065999999999995" y="1.67" class="f">(v2.95)</text><text x="50.1" y="1.67" class="f">║</text></symbol><symbol id="4"><text x="0" y="1.67" class="f">╚══════════════════════════════════════════════════╝</text></symbol><symbol id="5"><text x="0" y="1.67" class="f">▶</text><text x="3.006" y="1.67" class="f">Starting</text><text x="12.024" y="1.67" class="f">Alpha</text><text x="18.035999999999998" y="1.67" class="f">(ws:9200</text><text x="27.054" y="1.67" class="f">/</text><text x="29.058" y="1.67" class="f">http:9300)...</text></symbol><symbol id="6"><text x="0" y="1.67" class="f">▶</text><text x="3.006" y="1.67" class="f">Starting</text><text x="12.024" y="1.67" class="f">Beta</text><text x="18.035999999999998" y="1.67" class="f">(ws:9201</text><text x="27.054" y="1.67" class="f">/</text><text x="29.058" y="1.67" class="f">http:9301)...</text></symbol><symbol id="7"><text x="3.006" y="1.67" class="f">Waiting</text><text x="11.021999999999998" y="1.67" class="f">for</text><text x="15.029999999999998" y="1.67" class="f">links.......</text><text x="28.055999999999997" y="1.67" class="f">ready</text><text x="34.068" y="1.67" class="f">✓</text></symbol><symbol id="8"><text x="0" y="1.67" class="f">─────────────────────────────────────────────────</text></symbol><symbol id="9"><text x="0" y="1.67" class="f">📋</text><text x="3.006" y="1.67" class="f">Alpha:</text><text x="10.02" y="1.67" class="f">Alpha</text><text x="16.032" y="1.67" class="f">v2.95.0</text></symbol><symbol id="10"><text x="3.006" y="1.67" class="f">link:</text><text x="9.017999999999999" y="1.67" class="f">acp://33.229.122.29:9200/tok_390f6e4a4809496e</text></symbol><symbol id="11"><text x="0" y="1.67" class="f">📋</text><text x="3.006" y="1.67" class="f">Beta:</text><text x="10.02" y="1.67" class="f">Beta</text><text x="15.029999999999998" y="1.67" class="f">v2.95.0</text></symbol><symbol id="12"><text x="3.006" y="1.67" class="f">link:</text><text x="9.017999999999999" y="1.67" class="f">acp://33.229.122.29:9201/tok_442ac292b1f146e7</text></symbol><symbol id="13"><text x="0" y="1.67" class="f">🤝</text><text x="3.006" y="1.67" class="f">[1/2]</text><text x="9.017999999999999" y="1.67" class="f">Beta</text><text x="14.027999999999999" y="1.67" class="f">connects</text><text x="23.045999999999996" y="1.67" class="f">to</text><text x="26.052" y="1.67" class="f">Alpha...</text></symbol><symbol id="14"><text x="3.006" y="1.67" class="f">peer_id</text><text x="11.021999999999998" y="1.67" class="f">(Beta</text><text x="17.034" y="1.67" class="f">side):</text><text x="24.048" y="1.67" class="f">peer_001</text></symbol><symbol id="15"><text x="0" y="1.67" class="f">📨</text><text x="3.006" y="1.67" class="f">Beta</text><text x="8.016" y="1.67" class="f">→</text><text x="10.02" y="1.67" class="f">Alpha:</text><text x="17.034" y="1.67" class="f">&#x27;Hello</text><text x="24.048" y="1.67" class="f">from</text><text x="29.058" y="1.67" class="f">Beta!&#x27;</text></symbol><symbol id="16"><text x="3.006" y="1.67" class="f">ok=False</text></symbol><symbol id="17"><text x="0" y="1.67" class="f">📬</text><text x="3.006" y="1.67" class="f">Alpha</text><text x="9.017999999999999" y="1.67" class="f">inbox:</text></symbol><symbol id="18"><text x="2.004" y="1.67" class="f">(empty</text><text x="9.017999999999999" y="1.67" class="f">—</text><text x="11.021999999999998" y="1.67" class="f">message</text><text x="19.037999999999997" y="1.67" class="f">may</text><text x="23.045999999999996" y="1.67" class="f">still</text><text x="29.058" y="1.67" class="f">be</text><text x="32.064" y="1.67" class="f">in</text><text x="35.06999999999999" y="1.67" class="f">transit)</text></symbol><symbol id="19"><text x="0" y="1.67" class="f">🤝</text><text x="3.006" y="1.67" class="f">[2/2]</text><text x="9.017999999999999" y="1.67" class="f">Alpha</text><text x="15.029999999999998" y="1.67" class="f">connects</text><text x="24.048" y="1.67" class="f">back</text><text x="29.058" y="1.67" class="f">to</text><text x="32.064" y="1.67" class="f">Beta...</text></symbol><symbol id="20"><text x="3.006" y="1.67" class="f">peer_id</text><text x="11.021999999999998" y="1.67" class="f">(Alpha</text><text x="18.035999999999998" y="1.67" class="f">side):</text><text x="25.05" y="1.67" class="f">peer_001</text></symbol><symbol id="21"><text x="0" y="1.67" class="f">📨</text><text x="3.006" y="1.67" class="f">Alpha</text><text x="9.017999999999999" y="1.67" class="f">→</text><text x="11.021999999999998" y="1.67" class="f">Beta:</text><text x="17.034" y="1.67" class="f">&#x27;Loud</text><text x="23.045999999999996" y="1.67" class="f">and</text><text x="27.054" y="1.67" class="f">clear!&#x27;</text></symbol><symbol id="22"><text x="3.006" y="1.67" class="f">ok=True</text></symbol><symbol id="23"><text x="0" y="1.67" class="f">📬</text><text x="3.006" y="1.67" class="f">Beta</text><text x="8.016" y="1.67" class="f">inbox:</text></symbol><symbol id="24"><text x="2.004" y="1.67" class="f">[assistant]</text><text x="14.027999999999999" y="1.67" class="f">[{&#x27;type&#x27;:</text><text x="24.048" y="1.67" class="f">&#x27;text&#x27;,</text><text x="32.064" y="1.67" class="f">&#x27;content&#x27;:</text><text x="43.086" y="1.67" class="f">&#x27;Loud</text><text x="49.098" y="1.67" class="f">and</text><text x="53.105999999999995" y="1.67" class="f">clear,</text><text x="60.11999999999999" y="1.67" class="f">Beta!</text><text x="66.13199999999999" y="1.67" class="f">ACP</text><text x="70.13999999999999" y="1.67" class="f">P2P</text><text x="74.148" y="1.67" class="f">link</text><text x="79.158" y="1.67" class="f">e</text></symbol><symbol id="25"><text x="0" y="1.67" class="f">stablished.</text><text x="12.024" y="1.67" class="f">Re</text></symbol><symbol id="26"><text x="0" y="1.67" class="f">📊</text><text x="3.006" y="1.67" class="f">Alpha</text><text x="9.017999999999999" y="1.67" class="f">peers:</text><text x="16.032" y="1.67" class="f">6</text><text x="18.035999999999998" y="1.67" class="f">peer(s)</text></symbol><symbol id="27"><text x="0" y="1.67" class="f">📊</text><text x="3.006" y="1.67" class="f">Beta</text><text x="9.017999999999999" y="1.67" class="f">peers:</text><text x="16.032" y="1.67" class="f">6</text><text x="18.035999999999998" y="1.67" class="f">peer(s)</text></symbol><symbol id="28"><text x="0" y="1.67" class="f">║</text><text x="3.006" y="1.67" class="f">✅</text><text x="5.01" y="1.67" class="f">Demo</text><text x="10.02" y="1.67" class="f">complete</text><text x="19.037999999999997" y="1.67" class="f">—</text><text x="21.041999999999998" y="1.67" class="f">bidirectional</text><text x="35.06999999999999" y="1.67" class="f">P2P</text><text x="39.077999999999996" y="1.67" class="f">comms</text><text x="45.089999999999996" y="1.67" class="f">OK</text><text x="49.098" y="1.67" class="f">║</text></symbol><symbol id="29"><text x="0" y="1.67" class="f">║</text><text x="3.006" y="1.67" class="f">No</text><text x="6.012" y="1.67" class="f">central</text><text x="14.027999999999999" y="1.67" class="f">server.</text><text x="22.043999999999997" y="1.67" class="f">No</text><text x="25.05" y="1.67" class="f">OAuth.</text><text x="32.064" y="1.67" class="f">Just</text><text x="37.074" y="1.67" class="f">two</text><text x="41.082" y="1.67" class="f">agents.</text><text x="50.1" y="1.67" class="f">║</text></symbol><symbol id="30"><text x="0" y="1.67" class="f">🧹</text><text x="3.006" y="1.67" class="f">Cleaning</text><text x="12.024" y="1.67" class="f">up...</text></symbol><symbol id="a"><rect height="33" width="80" x="0" y="0" class="g"></rect></symbol><symbol id="b"><rect height="2.171" width="1.1022" class="h"></rect></symbol></defs><rect height="69.472" width="80" class="a"></rect><g class="j"><svg x="0" y="0" width="2400"><svg x="0"><use xlink:href="#a"></use><use xlink:href="#b" x="-0.0040000000000000036" y="0"></use></svg><svg x="80"><use xlink:href="#a"></use><use xlink:href="#b" x="-0.0040000000000000036" y="6.4879999999999995"></use><use xlink:href="#1" y="0"></use><use xlink:href="#2" y="2.171"></use><use xlink:href="#3" y="4.342"></use></svg><svg x="160"><use xlink:href="#a"></use><use xlink:href="#b" x="-0.0040000000000000036" y="15.171999999999999"></use><use xlink:href="#1" y="0"></use><use xlink:href="#2" y="2.171"></use><use xlink:href="#3" y="4.342"></use><use xlink:href="#4" y="6.513"></use><use xlink:href="#5" y="10.855"></use><use xlink:href="#6" y="13.026"></use></svg><svg x="240"><use xlink:href="#a"></use><use xlink:href="#b" x="22.996" y="15.171999999999999"></use><use xlink:href="#1" y="0"></use><use xlink:href="#2" y="2.171"></use><use xlink:href="#3" y="4.342"></use><use xlink:href="#4" y="6.513"></use><use xlink:href="#5" y="10.855"></use><use xlink:href="#6" y="13.026"></use><text x="3.006" y="16.866999999999997" class="f">Waiting</text><text x="11.021999999999998" y="16.866999999999997" class="f">for</text><text x="15.029999999999998" y="16.866999999999997" class="f">links...</text></svg><svg x="320"><use xlink:href="#a"></use><use xlink:href="#b" x="23.996" y="15.171999999999999"></use><use xlink:href="#1" y="0"></use><use xlink:href="#2" y="2.171"></use><use xlink:href="#3" y="4.342"></use><use xlink:href="#4" y="6.513"></use><use xlink:href="#5" y="10.855"></use><use xlink:href="#6" y="13.026"></use><text x="3.006" y="16.866999999999997" class="f">Waiting</text><text x="11.021999999999998" y="16.866999999999997" class="f">for</text><text x="15.029999999999998" y="16.866999999999997" class="f">links....</text></svg><svg x="400"><use xlink:href="#a"></use><use xlink:href="#b" x="24.996" y="15.171999999999999"></use><use xlink:href="#1" y="0"></use><use xlink:href="#2" y="2.171"></use><use xlink:href="#3" y="4.342"></use><use xlink:href="#4" y="6.513"></use><use xlink:href="#5" y="10.855"></use><use xlink:href="#6" y="13.026"></use><text x="3.006" y="16.866999999999997" class="f">Waiting</text><text x="11.021999999999998" y="16.866999999999997" class="f">for</text><text x="15.029999999999998" y="16.866999999999997" class="f">links.....</text></svg><svg x="480"><use xlink:href="#a"></use><use xlink:href="#b" x="25.996" y="15.171999999999999"></use><use xlink:href="#1" y="0"></use><use xlink:href="#2" y="2.171"></use><use xlink:href="#3" y="4.342"></use><use xlink:href="#4" y="6.513"></use><use xlink:href="#5" y="10.855"></use><use xlink:href="#6" y="13.026"></use><text x="3.006" y="16.866999999999997" class="f">Waiting</text><text x="11.021999999999998" y="16.866999999999997" class="f">for</text><text x="15.029999999999998" y="16.866999999999997" class="f">links......</text></svg><svg x="560"><use xlink:href="#a"></use><use xlink:href="#b" x="26.996" y="15.171999999999999"></use><use xlink:href="#1" y="0"></use><use xlink:href="#2" y="2.171"></use><use xlink:href="#3" y="4.342"></use><use xlink:href="#4" y="6.513"></use><use xlink:href="#5" y="10.855"></use><use xlink:href="#6" y="13.026"></use><text x="3.006" y="16.866999999999997" class="f">Waiting</text><text x="11.021999999999998" y="16.866999999999997" class="f">for</text><text x="15.029999999999998" y="16.866999999999997" class="f">links.......</text></svg><svg x="640"><use xlink:href="#a"></use><use xlink:href="#b" x="-0.0040000000000000036" y="21.685000000000002"></use><use xlink:href="#1" y="0"></use><use xlink:href="#2" y="2.171"></use><use xlink:href="#3" y="4.342"></use><use xlink:href="#4" y="6.513"></use><use xlink:href="#5" y="10.855"></use><use xlink:href="#6" y="13.026"></use><use xlink:href="#7" y="15.197"></use><use xlink:href="#8" y="19.539"></use></svg><svg x="720"><use xlink:href="#a"></use><use xlink:href="#b" x="-0.0040000000000000036" y="23.855999999999998"></use><use xlink:href="#1" y="0"></use><use xlink:href="#2" y="2.171"></use><use xlink:href="#3" y="4.342"></use><use xlink:href="#4" y="6.513"></use><use xlink:href="#5" y="10.855"></use><use xlink:href="#6" y="13.026"></use><use xlink:href="#7" y="15.197"></use><use xlink:href="#8" y="19.539"></use><use xlink:href="#9" y="21.71"></use></svg><svg x="800"><use xlink:href="#a"></use><use xlink:href="#b" x="-0.0040000000000000036" y="26.027"></use><use xlink:href="#1" y="0"></use><use xlink:href="#2" y="2.171"></use><use xlink:href="#3" y="4.342"></use><use xlink:href="#4" y="6.513"></use><use xlink:href="#5" y="10.855"></use><use xlink:href="#6" y="13.026"></use><use xlink:href="#7" y="15.197"></use><use xlink:href="#8" y="19.539"></use><use xlink:href="#9" y="21.71"></use><use xlink:href="#10" y="23.880999999999997"></use></svg><svg x="880"><use xlink:href="#a"></use><use xlink:href="#b" x="-0.0040000000000000036" y="28.198000000000004"></use><use xlink:href="#1" y="0"></use><use xlink:href="#2" y="2.171"></use><use xlink:href="#3" y="4.342"></use><use xlink:href="#4" y="6.513"></use><use xlink:href="#5" y="10.855"></use><use xlink:href="#6" y="13.026"></use><use xlink:href="#7" y="15.197"></use><use xlink:href="#8" y="19.539"></use><use xlink:href="#9" y="21.71"></use><use xlink:href="#10" y="23.880999999999997"></use><use xlink:href="#11" y="26.052"></use></svg><svg x="960"><use xlink:href="#a"></use><use xlink:href="#b" x="-0.0040000000000000036" y="36.882000000000005"></use><use xlink:href="#1" y="0"></use><use xlink:href="#2" y="2.171"></use><use xlink:href="#3" y="4.342"></use><use xlink:href="#4" y="6.513"></use><use xlink:href="#5" y="10.855"></use><use xlink:href="#6" y="13.026"></use><use xlink:href="#7" y="15.197"></use><use xlink:href="#8" y="19.539"></use><use xlink:href="#9" y="21.71"></use><use xlink:href="#10" y="23.880999999999997"></use><use xlink:href="#11" y="26.052"></use><use xlink:href="#12" y="28.223000000000003"></use><use xlink:href="#8" y="32.565"></use><use xlink:href="#13" y="34.736"></use></svg><svg x="1040"><use xlink:href="#a"></use><use xlink:href="#b" x="-0.0040000000000000036" y="39.053000000000004"></use><use xlink:href="#1" y="0"></use><use xlink:href="#2" y="2.171"></use><use xlink:href="#3" y="4.342"></use><use xlink:href="#4" y="6.513"></use><use xlink:href="#5" y="10.855"></use><use xlink:href="#6" y="13.026"></use><use xlink:href="#7" y="15.197"></use><use xlink:href="#8" y="19.539"></use><use xlink:href="#9" y="21.71"></use><use xlink:href="#10" y="23.880999999999997"></use><use xlink:href="#11" y="26.052"></use><use xlink:href="#12" y="28.223000000000003"></use><use xlink:href="#8" y="32.565"></use><use xlink:href="#13" y="34.736"></use><use xlink:href="#14" y="36.907000000000004"></use></svg><svg x="1120"><use xlink:href="#a"></use><use xlink:href="#b" x="-0.0040000000000000036" y="43.395"></use><use xlink:href="#1" y="0"></use><use xlink:href="#2" y="2.171"></use><use xlink:href="#3" y="4.342"></use><use xlink:href="#4" y="6.513"></use><use xlink:href="#5" y="10.855"></use><use xlink:href="#6" y="13.026"></use><use xlink:href="#7" y="15.197"></use><use xlink:href="#8" y="19.539"></use><use xlink:href="#9" y="21.71"></use><use xlink:href="#10" y="23.880999999999997"></use><use xlink:href="#11" y="26.052"></use><use xlink:href="#12" y="28.223000000000003"></use><use xlink:href="#8" y="32.565"></use><use xlink:href="#13" y="34.736"></use><use xlink:href="#14" y="36.907000000000004"></use><use xlink:href="#15" y="41.248999999999995"></use></svg><svg x="1200"><use xlink:href="#a"></use><use xlink:href="#b" x="-0.0040000000000000036" y="45.566"></use><use xlink:href="#1" y="0"></use><use xlink:href="#2" y="2.171"></use><use xlink:href="#3" y="4.342"></use><use xlink:href="#4" y="6.513"></use><use xlink:href="#5" y="10.855"></use><use xlink:href="#6" y="13.026"></use><use xlink:href="#7" y="15.197"></use><use xlink:href="#8" y="19.539"></use><use xlink:href="#9" y="21.71"></use><use xlink:href="#10" y="23.880999999999997"></use><use xlink:href="#11" y="26.052"></use><use xlink:href="#12" y="28.223000000000003"></use><use xlink:href="#8" y="32.565"></use><use xlink:href="#13" y="34.736"></use><use xlink:href="#14" y="36.907000000000004"></use><use xlink:href="#15" y="41.248999999999995"></use><use xlink:href="#16" y="43.42"></use></svg><svg x="1280"><use xlink:href="#a"></use><use xlink:href="#b" x="-0.0040000000000000036" y="49.908"></use><use xlink:href="#1" y="0"></use><use xlink:href="#2" y="2.171"></use><use xlink:href="#3" y="4.342"></use><use xlink:href="#4" y="6.513"></use><use xlink:href="#5" y="10.855"></use><use xlink:href="#6" y="13.026"></use><use xlink:href="#7" y="15.197"></use><use xlink:href="#8" y="19.539"></use><use xlink:href="#9" y="21.71"></use><use xlink:href="#10" y="23.880999999999997"></use><use xlink:href="#11" y="26.052"></use><use xlink:href="#12" y="28.223000000000003"></use><use xlink:href="#8" y="32.565"></use><use xlink:href="#13" y="34.736"></use><use xlink:href="#14" y="36.907000000000004"></use><use xlink:href="#15" y="41.248999999999995"></use><use xlink:href="#16" y="43.42"></use><use xlink:href="#17" y="47.76199999999999"></use></svg><svg x="1360"><use xlink:href="#a"></use><use xlink:href="#b" x="-0.0040000000000000036" y="52.079"></use><use xlink:href="#1" y="0"></use><use xlink:href="#2" y="2.171"></use><use xlink:href="#3" y="4.342"></use><use xlink:href="#4" y="6.513"></use><use xlink:href="#5" y="10.855"></use><use xlink:href="#6" y="13.026"></use><use xlink:href="#7" y="15.197"></use><use xlink:href="#8" y="19.539"></use><use xlink:href="#9" y="21.71"></use><use xlink:href="#10" y="23.880999999999997"></use><use xlink:href="#11" y="26.052"></use><use xlink:href="#12" y="28.223000000000003"></use><use xlink:href="#8" y="32.565"></use><use xlink:href="#13" y="34.736"></use><use xlink:href="#14" y="36.907000000000004"></use><use xlink:href="#15" y="41.248999999999995"></use><use xlink:href="#16" y="43.42"></use><use xlink:href="#17" y="47.76199999999999"></use><use xlink:href="#18" y="49.933"></use></svg><svg x="1440"><use xlink:href="#a"></use><use xlink:href="#b" x="-0.0040000000000000036" y="58.592"></use><use xlink:href="#1" y="0"></use><use xlink:href="#2" y="2.171"></use><use xlink:href="#3" y="4.342"></use><use xlink:href="#4" y="6.513"></use><use xlink:href="#5" y="10.855"></use><use xlink:href="#6" y="13.026"></use><use xlink:href="#7" y="15.197"></use><use xlink:href="#8" y="19.539"></use><use xlink:href="#9" y="21.71"></use><use xlink:href="#10" y="23.880999999999997"></use><use xlink:href="#11" y="26.052"></use><use xlink:href="#12" y="28.223000000000003"></use><use xlink:href="#8" y="32.565"></use><use xlink:href="#13" y="34.736"></use><use xlink:href="#14" y="36.907000000000004"></use><use xlink:href="#15" y="41.248999999999995"></use><use xlink:href="#16" y="43.42"></use><use xlink:href="#17" y="47.76199999999999"></use><use xlink:href="#18" y="49.933"></use><use xlink:href="#8" y="54.275"></use><use xlink:href="#19" y="56.446000000000005"></use></svg><svg x="1520"><use xlink:href="#a"></use><use xlink:href="#b" x="-0.0040000000000000036" y="60.763"></use><use xlink:href="#1" y="0"></use><use xlink:href="#2" y="2.171"></use><use xlink:href="#3" y="4.342"></use><use xlink:href="#4" y="6.513"></use><use xlink:href="#5" y="10.855"></use><use xlink:href="#6" y="13.026"></use><use xlink:href="#7" y="15.197"></use><use xlink:href="#8" y="19.539"></use><use xlink:href="#9" y="21.71"></use><use xlink:href="#10" y="23.880999999999997"></use><use xlink:href="#11" y="26.052"></use><use xlink:href="#12" y="28.223000000000003"></use><use xlink:href="#8" y="32.565"></use><use xlink:href="#13" y="34.736"></use><use xlink:href="#14" y="36.907000000000004"></use><use xlink:href="#15" y="41.248999999999995"></use><use xlink:href="#16" y="43.42"></use><use xlink:href="#17" y="47.76199999999999"></use><use xlink:href="#18" y="49.933"></use><use xlink:href="#8" y="54.275"></use><use xlink:href="#19" y="56.446000000000005"></use><use xlink:href="#20" y="58.617"></use></svg><svg x="1600"><use xlink:href="#a"></use><use xlink:href="#b" x="-0.0040000000000000036" y="65.10499999999999"></use><use xlink:href="#1" y="0"></use><use xlink:href="#2" y="2.171"></use><use xlink:href="#3" y="4.342"></use><use xlink:href="#4" y="6.513"></use><use xlink:href="#5" y="10.855"></use><use xlink:href="#6" y="13.026"></use><use xlink:href="#7" y="15.197"></use><use xlink:href="#8" y="19.539"></use><use xlink:href="#9" y="21.71"></use><use xlink:href="#10" y="23.880999999999997"></use><use xlink:href="#11" y="26.052"></use><use xlink:href="#12" y="28.223000000000003"></use><use xlink:href="#8" y="32.565"></use><use xlink:href="#13" y="34.736"></use><use xlink:href="#14" y="36.907000000000004"></use><use xlink:href="#15" y="41.248999999999995"></use><use xlink:href="#16" y="43.42"></use><use xlink:href="#17" y="47.76199999999999"></use><use xlink:href="#18" y="49.933"></use><use xlink:href="#8" y="54.275"></use><use xlink:href="#19" y="56.446000000000005"></use><use xlink:href="#20" y="58.617"></use><use xlink:href="#21" y="62.959"></use></svg><svg x="1680"><use xlink:href="#a"></use><use xlink:href="#b" x="-0.0040000000000000036" y="67.276"></use><use xlink:href="#1" y="0"></use><use xlink:href="#2" y="2.171"></use><use xlink:href="#3" y="4.342"></use><use xlink:href="#4" y="6.513"></use><use xlink:href="#5" y="10.855"></use><use xlink:href="#6" y="13.026"></use><use xlink:href="#7" y="15.197"></use><use xlink:href="#8" y="19.539"></use><use xlink:href="#9" y="21.71"></use><use xlink:href="#10" y="23.880999999999997"></use><use xlink:href="#11" y="26.052"></use><use xlink:href="#12" y="28.223000000000003"></use><use xlink:href="#8" y="32.565"></use><use xlink:href="#13" y="34.736"></use><use xlink:href="#14" y="36.907000000000004"></use><use xlink:href="#15" y="41.248999999999995"></use><use xlink:href="#16" y="43.42"></use><use xlink:href="#17" y="47.76199999999999"></use><use xlink:href="#18" y="49.933"></use><use xlink:href="#8" y="54.275"></use><use xlink:href="#19" y="56.446000000000005"></use><use xlink:href="#20" y="58.617"></use><use xlink:href="#21" y="62.959"></use><use xlink:href="#22" y="65.13"></use></svg><svg x="1760"><use xlink:href="#a"></use><use xlink:href="#b" x="-0.0040000000000000036" y="69.44699999999999"></use><use xlink:href="#2" y="0"></use><use xlink:href="#3" y="2.171"></use><use xlink:href="#4" y="4.342"></use><use xlink:href="#5" y="8.684"></use><use xlink:href="#6" y="10.855"></use><use xlink:href="#7" y="13.026"></use><use xlink:href="#8" y="17.368"></use><use xlink:href="#9" y="19.539"></use><use xlink:href="#10" y="21.71"></use><use xlink:href="#11" y="23.880999999999997"></use><use xlink:href="#12" y="26.052"></use><use xlink:href="#8" y="30.394"></use><use xlink:href="#13" y="32.565"></use><use xlink:href="#14" y="34.736"></use><use xlink:href="#15" y="39.078"></use><use xlink:href="#16" y="41.248999999999995"></use><use xlink:href="#17" y="45.591"></use><use xlink:href="#18" y="47.76199999999999"></use><use xlink:href="#8" y="52.104"></use><use xlink:href="#19" y="54.275"></use><use xlink:href="#20" y="56.446000000000005"></use><use xlink:href="#21" y="60.788"></use><use xlink:href="#22" y="62.959"></use><use xlink:href="#23" y="67.301"></use></svg><svg x="1840"><use xlink:href="#a"></use><use xlink:href="#b" x="-0.0040000000000000036" y="69.44699999999999"></use><use xlink:href="#4" y="0"></use><use xlink:href="#5" y="4.342"></use><use xlink:href="#6" y="6.513"></use><use xlink:href="#7" y="8.684"></use><use xlink:href="#8" y="13.026"></use><use xlink:href="#9" y="15.197"></use><use xlink:href="#10" y="17.368"></use><use xlink:href="#11" y="19.539"></use><use xlink:href="#12" y="21.71"></use><use xlink:href="#8" y="26.052"></use><use xlink:href="#13" y="28.223000000000003"></use><use xlink:href="#14" y="30.394"></use><use xlink:href="#15" y="34.736"></use><use xlink:href="#16" y="36.907000000000004"></use><use xlink:href="#17" y="41.248999999999995"></use><use xlink:href="#18" y="43.42"></use><use xlink:href="#8" y="47.76199999999999"></use><use xlink:href="#19" y="49.933"></use><use xlink:href="#20" y="52.104"></use><use xlink:href="#21" y="56.446000000000005"></use><use xlink:href="#22" y="58.617"></use><use xlink:href="#23" y="62.959"></use><use xlink:href="#24" y="65.13"></use><use xlink:href="#25" y="67.301"></use></svg><svg x="1920"><use xlink:href="#a"></use><use xlink:href="#b" x="-0.0040000000000000036" y="69.44699999999999"></use><use xlink:href="#5" y="2.171"></use><use xlink:href="#6" y="4.342"></use><use xlink:href="#7" y="6.513"></use><use xlink:href="#8" y="10.855"></use><use xlink:href="#9" y="13.026"></use><use xlink:href="#10" y="15.197"></use><use xlink:href="#11" y="17.368"></use><use xlink:href="#12" y="19.539"></use><use xlink:href="#8" y="23.880999999999997"></use><use xlink:href="#13" y="26.052"></use><use xlink:href="#14" y="28.223000000000003"></use><use xlink:href="#15" y="32.565"></use><use xlink:href="#16" y="34.736"></use><use xlink:href="#17" y="39.078"></use><use xlink:href="#18" y="41.248999999999995"></use><use xlink:href="#8" y="45.591"></use><use xlink:href="#19" y="47.76199999999999"></use><use xlink:href="#20" y="49.933"></use><use xlink:href="#21" y="54.275"></use><use xlink:href="#22" y="56.446000000000005"></use><use xlink:href="#23" y="60.788"></use><use xlink:href="#24" y="62.959"></use><use xlink:href="#25" y="65.13"></use></svg><svg x="2000"><use xlink:href="#a"></use><use xlink:href="#b" x="-0.0040000000000000036" y="69.44699999999999"></use><use xlink:href="#5" y="0"></use><use xlink:href="#6" y="2.171"></use><use xlink:href="#7" y="4.342"></use><use xlink:href="#8" y="8.684"></use><use xlink:href="#9" y="10.855"></use><use xlink:href="#10" y="13.026"></use><use xlink:href="#11" y="15.197"></use><use xlink:href="#12" y="17.368"></use><use xlink:href="#8" y="21.71"></use><use xlink:href="#13" y="23.880999999999997"></use><use xlink:href="#14" y="26.052"></use><use xlink:href="#15" y="30.394"></use><use xlink:href="#16" y="32.565"></use><use xlink:href="#17" y="36.907000000000004"></use><use xlink:href="#18" y="39.078"></use><use xlink:href="#8" y="43.42"></use><use xlink:href="#19" y="45.591"></use><use xlink:href="#20" y="47.76199999999999"></use><use xlink:href="#21" y="52.104"></use><use xlink:href="#22" y="54.275"></use><use xlink:href="#23" y="58.617"></use><use xlink:href="#24" y="60.788"></use><use xlink:href="#25" y="62.959"></use><use xlink:href="#8" y="67.301"></use></svg><svg x="2080"><use xlink:href="#a"></use><use xlink:href="#b" x="-0.0040000000000000036" y="69.44699999999999"></use><use xlink:href="#8" y="2.171"></use><use xlink:href="#9" y="4.342"></use><use xlink:href="#10" y="6.513"></use><use xlink:href="#11" y="8.684"></use><use xlink:href="#12" y="10.855"></use><use xlink:href="#8" y="15.197"></use><use xlink:href="#13" y="17.368"></use><use xlink:href="#14" y="19.539"></use><use xlink:href="#15" y="23.880999999999997"></use><use xlink:href="#16" y="26.052"></use><use xlink:href="#17" y="30.394"></use><use xlink:href="#18" y="32.565"></use><use xlink:href="#8" y="36.907000000000004"></use><use xlink:href="#19" y="39.078"></use><use xlink:href="#20" y="41.248999999999995"></use><use xlink:href="#21" y="45.591"></use><use xlink:href="#22" y="47.76199999999999"></use><use xlink:href="#23" y="52.104"></use><use xlink:href="#24" y="54.275"></use><use xlink:href="#25" y="56.446000000000005"></use><use xlink:href="#8" y="60.788"></use><use xlink:href="#26" y="62.959"></use><use xlink:href="#27" y="65.13"></use></svg><svg x="2160"><use xlink:href="#a"></use><use xlink:href="#b" x="-0.0040000000000000036" y="69.44699999999999"></use><use xlink:href="#10" y="0"></use><use xlink:href="#11" y="2.171"></use><use xlink:href="#12" y="4.342"></use><use xlink:href="#8" y="8.684"></use><use xlink:href="#13" y="10.855"></use><use xlink:href="#14" y="13.026"></use><use xlink:href="#15" y="17.368"></use><use xlink:href="#16" y="19.539"></use><use xlink:href="#17" y="23.880999999999997"></use><use xlink:href="#18" y="26.052"></use><use xlink:href="#8" y="30.394"></use><use xlink:href="#19" y="32.565"></use><use xlink:href="#20" y="34.736"></use><use xlink:href="#21" y="39.078"></use><use xlink:href="#22" y="41.248999999999995"></use><use xlink:href="#23" y="45.591"></use><use xlink:href="#24" y="47.76199999999999"></use><use xlink:href="#25" y="49.933"></use><use xlink:href="#8" y="54.275"></use><use xlink:href="#26" y="56.446000000000005"></use><use xlink:href="#27" y="58.617"></use><use xlink:href="#1" y="62.959"></use><use xlink:href="#28" y="65.13"></use><use xlink:href="#29" y="67.301"></use></svg><svg x="2240"><use xlink:href="#a"></use><use xlink:href="#b" x="-0.0040000000000000036" y="69.44699999999999"></use><use xlink:href="#8" y="2.171"></use><use xlink:href="#13" y="4.342"></use><use xlink:href="#14" y="6.513"></use><use xlink:href="#15" y="10.855"></use><use xlink:href="#16" y="13.026"></use><use xlink:href="#17" y="17.368"></use><use xlink:href="#18" y="19.539"></use><use xlink:href="#8" y="23.880999999999997"></use><use xlink:href="#19" y="26.052"></use><use xlink:href="#20" y="28.223000000000003"></use><use xlink:href="#21" y="32.565"></use><use xlink:href="#22" y="34.736"></use><use xlink:href="#23" y="39.078"></use><use xlink:href="#24" y="41.248999999999995"></use><use xlink:href="#25" y="43.42"></use><use xlink:href="#8" y="47.76199999999999"></use><use xlink:href="#26" y="49.933"></use><use xlink:href="#27" y="52.104"></use><use xlink:href="#1" y="56.446000000000005"></use><use xlink:href="#28" y="58.617"></use><use xlink:href="#29" y="60.788"></use><use xlink:href="#4" y="62.959"></use><use xlink:href="#30" y="67.301"></use></svg><svg x="2320"><use xlink:href="#a"></use><use xlink:href="#b" x="-0.0040000000000000036" y="69.44699999999999"></use><use xlink:href="#8" y="0"></use><use xlink:href="#13" y="2.171"></use><use xlink:href="#14" y="4.342"></use><use xlink:href="#15" y="8.684"></use><use xlink:href="#16" y="10.855"></use><use xlink:href="#17" y="15.197"></use><use xlink:href="#18" y="17.368"></use><use xlink:href="#8" y="21.71"></use><use xlink:href="#19" y="23.880999999999997"></use><use xlink:href="#20" y="26.052"></use><use xlink:href="#21" y="30.394"></use><use xlink:href="#22" y="32.565"></use><use xlink:href="#23" y="36.907000000000004"></use><use xlink:href="#24" y="39.078"></use><use xlink:href="#25" y="41.248999999999995"></use><use xlink:href="#8" y="45.591"></use><use xlink:href="#26" y="47.76199999999999"></use><use xlink:href="#27" y="49.933"></use><use xlink:href="#1" y="54.275"></use><use xlink:href="#28" y="56.446000000000005"></use><use xlink:href="#29" y="58.617"></use><use xlink:href="#4" y="60.788"></use><use xlink:href="#30" y="65.13"></use><text x="0" y="68.971" class="f">✅</text><text x="2.004" y="68.971" class="f">Done.</text></svg></svg></g></g></svg></svg>